<svg width="30" height="30" viewBox="0 0 30 30" fill="none" xmlns="http://www.w3.org/2000/svg">
<path d="M15 29.5312C6.97266 29.5312 0.46875 23.0273 0.46875 15C0.46875 6.97266 6.97266 0.46875 15 0.46875C23.0273 0.46875 29.5312 6.97266 29.5312 15C29.5312 23.0273 23.0273 29.5312 15 29.5312ZM8.32617 15.9961L16.2656 23.9355C16.8164 24.4863 17.707 24.4863 18.252 23.9355L19.248 22.9395C19.7988 22.3887 19.7988 21.498 19.248 20.9531L13.2949 15L19.248 9.04688C19.7988 8.49609 19.7988 7.60547 19.248 7.06055L18.252 6.06445C17.7012 5.51367 16.8105 5.51367 16.2656 6.06445L8.32617 14.0039C7.77539 14.5547 7.77539 15.4453 8.32617 15.9961Z" fill="#2562FF"/>
</svg>
