<svg width="26" height="21" viewBox="0 0 26 21" fill="none" xmlns="http://www.w3.org/2000/svg">
<path d="M10.4932 8.96758L13.8811 13.2324C13.8811 13.2324 13.2327 17.2309 10.8901 19.0965C8.54751 20.9629 0.474854 20.4293 0.474854 20.4293C0.474854 20.4293 0.623291 19.5254 0.904541 18.2641L4.60063 13.8824C4.75571 13.6988 4.56665 13.4285 4.34087 13.5113L1.98149 14.3742C2.54556 12.7469 3.25962 11.2477 4.11431 10.5668C6.45688 8.70117 10.4932 8.96758 10.4932 8.96758V8.96758ZM25.3393 1.71211L24.5635 0.735547C24.3491 0.466016 23.9573 0.421094 23.6881 0.635547L14.6069 7.58086L13.2733 5.90234C13.0745 5.65195 12.6819 5.69883 12.5471 5.98867L11.5577 8.11953L14.9456 12.3844L17.2424 11.898C17.5549 11.832 17.6885 11.4605 17.4901 11.2105L16.1584 9.53398L25.2397 2.58867C25.5088 2.37461 25.5538 1.98203 25.3393 1.71211V1.71211Z" fill="white"/>
</svg>
