<svg width="25" height="25" viewBox="0 0 25 25" fill="none" xmlns="http://www.w3.org/2000/svg">
<path d="M8.49121 19.9043C8.49121 20.002 8.37891 20.0801 8.2373 20.0801C8.07617 20.0947 7.96387 20.0166 7.96387 19.9043C7.96387 19.8066 8.07617 19.7285 8.21777 19.7285C8.36426 19.7139 8.49121 19.792 8.49121 19.9043ZM6.97266 19.6846C6.93848 19.7822 7.03613 19.8945 7.18262 19.9238C7.30957 19.9727 7.45605 19.9238 7.48535 19.8262C7.51465 19.7285 7.42188 19.6162 7.27539 19.5723C7.14844 19.5381 7.00684 19.5869 6.97266 19.6846ZM9.13086 19.6016C8.98926 19.6357 8.8916 19.7285 8.90625 19.8408C8.9209 19.9385 9.04785 20.002 9.19434 19.9678C9.33594 19.9336 9.43359 19.8408 9.41895 19.7432C9.4043 19.6504 9.27246 19.5869 9.13086 19.6016ZM12.3438 0.890625C5.57129 0.890625 0.390625 6.03223 0.390625 12.8047C0.390625 18.2197 3.79883 22.8535 8.66699 24.4844C9.29199 24.5967 9.51172 24.2109 9.51172 23.8936C9.51172 23.5908 9.49707 21.9209 9.49707 20.8955C9.49707 20.8955 6.0791 21.6279 5.36133 19.4404C5.36133 19.4404 4.80469 18.0195 4.00391 17.6533C4.00391 17.6533 2.88574 16.8867 4.08203 16.9014C4.08203 16.9014 5.29785 16.999 5.9668 18.1611C7.03613 20.0459 8.82813 19.5039 9.52637 19.1816C9.63867 18.4004 9.95605 17.8584 10.3076 17.5361C7.57813 17.2334 4.82422 16.8379 4.82422 12.1406C4.82422 10.7979 5.19531 10.124 5.97656 9.26465C5.84961 8.94727 5.43457 7.63867 6.10352 5.94922C7.12402 5.63184 9.47266 7.26758 9.47266 7.26758C10.4492 6.99414 11.499 6.85254 12.5391 6.85254C13.5791 6.85254 14.6289 6.99414 15.6055 7.26758C15.6055 7.26758 17.9541 5.62695 18.9746 5.94922C19.6436 7.64355 19.2285 8.94727 19.1016 9.26465C19.8828 10.1289 20.3613 10.8027 20.3613 12.1406C20.3613 16.8525 17.4854 17.2285 14.7559 17.5361C15.2051 17.9219 15.5859 18.6543 15.5859 19.8018C15.5859 21.4473 15.5713 23.4834 15.5713 23.8838C15.5713 24.2012 15.7959 24.5869 16.416 24.4746C21.2988 22.8535 24.6094 18.2197 24.6094 12.8047C24.6094 6.03223 19.1162 0.890625 12.3438 0.890625ZM5.13672 17.7314C5.07324 17.7803 5.08789 17.8926 5.1709 17.9854C5.24902 18.0635 5.36133 18.0977 5.4248 18.0342C5.48828 17.9854 5.47363 17.873 5.39063 17.7803C5.3125 17.7021 5.2002 17.668 5.13672 17.7314ZM4.60938 17.3359C4.5752 17.3994 4.62402 17.4775 4.72168 17.5264C4.7998 17.5752 4.89746 17.5605 4.93164 17.4922C4.96582 17.4287 4.91699 17.3506 4.81934 17.3018C4.72168 17.2725 4.64355 17.2871 4.60938 17.3359ZM6.19141 19.0742C6.11328 19.1377 6.14258 19.2842 6.25488 19.377C6.36719 19.4893 6.50879 19.5039 6.57227 19.4258C6.63574 19.3623 6.60645 19.2158 6.50879 19.123C6.40137 19.0107 6.25488 18.9961 6.19141 19.0742ZM5.63477 18.3564C5.55664 18.4053 5.55664 18.5322 5.63477 18.6445C5.71289 18.7568 5.84473 18.8057 5.9082 18.7568C5.98633 18.6934 5.98633 18.5664 5.9082 18.4541C5.83984 18.3418 5.71289 18.293 5.63477 18.3564Z" fill="white"/>
</svg>
