<svg width="20" height="20" viewBox="0 0 23 23" fill="none" xmlns="http://www.w3.org/2000/svg">
<path d="M20.875 9.15625H13.8438V2.125C13.8438 1.26221 13.144 0.5625 12.2812 0.5625H10.7188C9.85596 0.5625 9.15625 1.26221 9.15625 2.125V9.15625H2.125C1.26221 9.15625 0.5625 9.85596 0.5625 10.7188V12.2812C0.5625 13.144 1.26221 13.8438 2.125 13.8438H9.15625V20.875C9.15625 21.7378 9.85596 22.4375 10.7188 22.4375H12.2812C13.144 22.4375 13.8438 21.7378 13.8438 20.875V13.8438H20.875C21.7378 13.8438 22.4375 13.144 22.4375 12.2812V10.7188C22.4375 9.85596 21.7378 9.15625 20.875 9.15625Z" fill="white"/>
</svg>
