<svg width="25" height="25" viewBox="0 0 25 25" fill="none" xmlns="http://www.w3.org/2000/svg">
<path d="M19.5313 2.6416C22.6074 4.83887 24.6094 8.43262 24.6094 12.5C24.6094 19.1797 19.1992 24.5947 12.5244 24.6094C5.85938 24.624 0.4004 19.1895 0.390634 12.5195C0.385751 8.45215 2.3877 4.84863 5.45899 2.64648C6.03028 2.24121 6.82618 2.41211 7.16798 3.02246L7.93946 4.39453C8.22755 4.90723 8.09083 5.55664 7.6172 5.9082C5.59083 7.41211 4.29688 9.79492 4.29688 12.4951C4.292 17.002 7.93458 20.7031 12.5 20.7031C16.9727 20.7031 20.7324 17.0801 20.7031 12.4463C20.6885 9.91699 19.4971 7.47559 17.3779 5.90332C16.9043 5.55176 16.7725 4.90234 17.0606 4.39453L17.832 3.02246C18.1738 2.41699 18.9649 2.23633 19.5313 2.6416ZM14.4531 12.8906V1.17188C14.4531 0.522461 13.9307 0 13.2813 0H11.7188C11.0693 0 10.5469 0.522461 10.5469 1.17188V12.8906C10.5469 13.54 11.0693 14.0625 11.7188 14.0625H13.2813C13.9307 14.0625 14.4531 13.54 14.4531 12.8906Z" fill="white"/>
</svg>
