<svg width="26" height="26" viewBox="0 0 26 26" fill="none" xmlns="http://www.w3.org/2000/svg">
<path d="M25.1331 22.5515L20.2649 17.6833C20.0452 17.4636 19.7473 17.3415 19.4348 17.3415H18.6389C19.9866 15.6179 20.7874 13.4499 20.7874 11.0915C20.7874 5.48115 16.2415 0.935252 10.6311 0.935252C5.02075 0.935252 0.474854 5.48115 0.474854 11.0915C0.474854 16.7019 5.02075 21.2478 10.6311 21.2478C12.9895 21.2478 15.1575 20.447 16.8811 19.0993V19.8952C16.8811 20.2077 17.0032 20.5056 17.2229 20.7253L22.0911 25.5935C22.55 26.0524 23.2922 26.0524 23.7463 25.5935L25.1282 24.2116C25.5872 23.7526 25.5872 23.0104 25.1331 22.5515ZM10.6311 17.3415C7.17896 17.3415 4.3811 14.5485 4.3811 11.0915C4.3811 7.63935 7.17407 4.8415 10.6311 4.8415C14.0833 4.8415 16.8811 7.63447 16.8811 11.0915C16.8811 14.5437 14.0881 17.3415 10.6311 17.3415Z" fill="white"/>
</svg>
