<svg width="22" height="26" viewBox="0 0 22 26" fill="none" xmlns="http://www.w3.org/2000/svg">
<path d="M1.59985 23.5915C1.59985 24.2131 1.84678 24.8092 2.28632 25.2488C2.72586 25.6883 3.322 25.9353 3.9436 25.9353H18.0061C18.6277 25.9353 19.2238 25.6883 19.6634 25.2488C20.1029 24.8092 20.3499 24.2131 20.3499 23.5915V7.18525H1.59985V23.5915ZM14.8811 11.0915C14.8811 10.8843 14.9634 10.6856 15.1099 10.5391C15.2564 10.3926 15.4552 10.3103 15.6624 10.3103C15.8696 10.3103 16.0683 10.3926 16.2148 10.5391C16.3613 10.6856 16.4436 10.8843 16.4436 11.0915V22.029C16.4436 22.2362 16.3613 22.4349 16.2148 22.5814C16.0683 22.7279 15.8696 22.8103 15.6624 22.8103C15.4552 22.8103 15.2564 22.7279 15.1099 22.5814C14.9634 22.4349 14.8811 22.2362 14.8811 22.029V11.0915ZM10.1936 11.0915C10.1936 10.8843 10.2759 10.6856 10.4224 10.5391C10.5689 10.3926 10.7677 10.3103 10.9749 10.3103C11.1821 10.3103 11.3808 10.3926 11.5273 10.5391C11.6738 10.6856 11.7561 10.8843 11.7561 11.0915V22.029C11.7561 22.2362 11.6738 22.4349 11.5273 22.5814C11.3808 22.7279 11.1821 22.8103 10.9749 22.8103C10.7677 22.8103 10.5689 22.7279 10.4224 22.5814C10.2759 22.4349 10.1936 22.2362 10.1936 22.029V11.0915ZM5.5061 11.0915C5.5061 10.8843 5.58841 10.6856 5.73493 10.5391C5.88144 10.3926 6.08015 10.3103 6.28735 10.3103C6.49455 10.3103 6.69327 10.3926 6.83978 10.5391C6.98629 10.6856 7.0686 10.8843 7.0686 11.0915V22.029C7.0686 22.2362 6.98629 22.4349 6.83978 22.5814C6.69327 22.7279 6.49455 22.8103 6.28735 22.8103C6.08015 22.8103 5.88144 22.7279 5.73493 22.5814C5.58841 22.4349 5.5061 22.2362 5.5061 22.029V11.0915ZM21.1311 2.49775H15.2717L14.8127 1.58467C14.7155 1.38946 14.5657 1.22525 14.3803 1.11052C14.1948 0.995796 13.981 0.935095 13.7629 0.935252H8.18188C7.9643 0.934415 7.75087 0.994889 7.56607 1.10975C7.38126 1.2246 7.23255 1.38919 7.13696 1.58467L6.67798 2.49775H0.818604C0.611403 2.49775 0.412689 2.58006 0.266176 2.72657C0.119664 2.87309 0.0373535 3.0718 0.0373535 3.279L0.0373535 4.8415C0.0373535 5.0487 0.119664 5.24742 0.266176 5.39393C0.412689 5.54044 0.611403 5.62275 0.818604 5.62275H21.1311C21.3383 5.62275 21.537 5.54044 21.6835 5.39393C21.83 5.24742 21.9124 5.0487 21.9124 4.8415V3.279C21.9124 3.0718 21.83 2.87309 21.6835 2.72657C21.537 2.58006 21.3383 2.49775 21.1311 2.49775V2.49775Z" fill="#C80000"/>
</svg>
